Coordinates
version=1
nRows=7
nColumns=40
inDegrees=yes

Units are S.I. units (second, meters, Newtons, ...)
If the header above contains a line with 'inDegrees', this indicates whether rotational values are in degrees (yes) or radians (no).

endheader
time	pelvis_tilt	pelvis_list	pelvis_rotation	pelvis_tx	pelvis_ty	pelvis_tz	hip_flexion_r	hip_adduction_r	hip_rotation_r	knee_angle_r	knee_angle_r_beta	ankle_angle_r	subtalar_angle_r	mtp_angle_r	hip_flexion_l	hip_adduction_l	hip_rotation_l	knee_angle_l	knee_angle_l_beta	ankle_angle_l	subtalar_angle_l	mtp_angle_l	lumbar_extension	lumbar_bending	lumbar_rotation	arm_flex_r	arm_add_r	arm_rot_r	elbow_flex_r	pro_sup_r	wrist_flex_r	wrist_dev_r	arm_flex_l	arm_add_l	arm_rot_l	elbow_flex_l	pro_sup_l	wrist_flex_l	wrist_dev_l
      0.85500000	    -12.92071566	      4.14401832	     14.27971843	      0.36492936	      0.92825466	      0.18347339	     25.25642873	    -29.59787690	    -36.24134826	     71.24695468	      1.24349394	    -16.49046159	    -17.21845680	      0.00000000	     14.15227644	     13.37936847	      5.73825303	      0.37138166	      0.00648183	    -15.97922568	     -8.08621416	      0.00000000	      8.66403749	     -8.46071476	    -22.34960905	     44.24775625	    -15.80412268	     44.24775625	     75.11764022	     44.99667897	      0.00000000	      0.00000000	     44.24775625	    -15.80412268	     44.24775625	     75.11764022	     44.99667897	      0.00000000	      0.00000000
      0.86000000	    -12.94008845	      4.12691376	     14.56256693	      0.37078743	      0.92911724	      0.18322856	     26.05062614	    -29.67011117	    -36.36571635	     70.82804537	      1.23618259	    -16.15784331	    -17.12397023	      0.00000000	     13.69266135	     13.35134344	      5.70373877	      0.32932471	      0.00574780	    -15.81902430	     -7.88651473	      0.00000000	      8.65337102	     -8.45804398	    -22.34757475	     44.24792530	    -15.80382403	     44.24792530	     75.11755477	     44.99668567	      0.00000000	      0.00000000	     44.24792530	    -15.80382403	     44.24792530	     75.11755477	     44.99668567	      0.00000000	      0.00000000
      0.86500000	    -13.09726913	      3.93968917	     14.86997351	      0.37672541	      0.92965991	      0.18305265	     26.95263175	    -29.56226053	    -36.50891134	     70.38684782	      1.22848224	    -15.07341275	    -16.32118680	      0.00000000	     13.44179787	     13.14809106	      5.53435597	      0.33243278	      0.00580205	    -15.14978826	     -6.86603536	      0.00000000	      8.80697218	     -8.34221786	    -22.40398688	     44.24873218	    -15.80239883	     44.24873218	     75.11714727	     44.99671753	      0.00000000	      0.00000000	     44.24873218	    -15.80239883	     44.24873218	     75.11714727	     44.99671753	      0.00000000	      0.00000000
      0.87000000	    -13.11290495	      3.97715178	     15.14953195	      0.38254044	      0.93036817	      0.18289056	     27.71512450	    -29.67108435	    -36.62468486	     69.85365804	      1.21917633	    -14.80993987	    -16.24316075	      0.00000000	     12.98694908	     13.16342869	      5.48871039	      0.30627397	      0.00534549	    -15.02298259	     -6.72895947	      0.00000000	      8.76411268	     -8.38099052	    -22.38160860	     44.24884627	    -15.80219743	     44.24884627	     75.11708976	     44.99672200	      0.00000000	      0.00000000	     44.24884627	    -15.80219743	     44.24884627	     75.11708976	     44.99672200	      0.00000000	      0.00000000
      0.87500000	    -13.23568011	      3.79464226	     15.40445354	      0.38856427	      0.93086197	      0.18286685	     28.53910659	    -29.49624952	    -36.74245569	     69.21412469	      1.20801436	    -13.77477086	    -15.38301985	      0.00000000	     12.70088619	     12.92761476	      5.31684203	      0.29880397	      0.00521511	    -14.38809989	     -5.70775037	      0.00000000	      8.89118676	     -8.28882931	    -22.38872798	     44.24958890	    -15.80088677	     44.24958890	     75.11671572	     44.99675105	      0.00000000	      0.00000000	     44.24958890	    -15.80088677	     44.24958890	     75.11671572	     44.99675105	      0.00000000	      0.00000000
      0.88000000	    -13.14117468	      3.80044989	     15.54277453	      0.39465926	      0.93164352	      0.18311991	     29.15367216	    -29.39298296	    -36.74399875	     68.48918838	      1.19536184	    -13.11846290	    -14.80246341	      0.00000000	     12.16336863	     12.79761635	      4.89569540	      0.29176081	      0.00509219	    -13.94159550	     -4.87714608	      0.00000000	      8.76721420	     -8.30011729	    -22.22102930	     44.25105054	    -15.79830937	     44.25105054	     75.11598180	     44.99680758	      0.00000000	      0.00000000	     44.25105054	    -15.79830937	     44.25105054	     75.11598180	     44.99680758	      0.00000000	      0.00000000
      0.88500000	    -13.20272670	      3.85212049	     15.80981975	      0.40044637	      0.93205365	      0.18306209	     29.91119842	    -29.47856134	    -36.86373487	     67.74205528	      1.18232191	    -12.83896025	    -14.65324296	      0.00000000	     11.76848183	     12.82438167	      4.90509415	      0.27417055	      0.00478518	    -13.77183477	     -4.72047477	      0.00000000	      8.75200974	     -8.38817971	    -22.16667150	     44.25121409	    -15.79802126	     44.25121409	     75.11589993	     44.99681384	      0.00000000	      0.00000000	     44.25121409	    -15.79802126	     44.25121409	     75.11589993	     44.99681384	      0.00000000	      0.00000000
